<?xml version="1.0" encoding="utf-8"?>
<!-- Generator: Adobe Illustrator 24.1.0, SVG Export Plug-In . SVG Version: 6.00 Build 0)  -->
<svg version="1.1" id="Livello_1" xmlns="http://www.w3.org/2000/svg" xmlns:xlink="http://www.w3.org/1999/xlink" x="0px" y="0px"
	 viewBox="0 0 1366 522" style="enable-background:new 0 0 1366 522;" xml:space="preserve">
<style type="text/css">
	.st0{fill:#FFFFFF;}
	.st1{clip-path:url(#SVGID_2_);fill:#FFFFFF;}
</style>
<g>
	<path class="st0" d="M11,378.1l23.88,21.26L11,421.75v6.41l28.04-25.82v-6.11L11,371.73V378.1z M43.56,378.1l23.89,21.26
		l-23.89,22.4v6.41l28.05-25.82v-6.11l-28.05-24.5V378.1z"/>
	<g>
		<defs>
			<rect id="SVGID_1_" x="11.01" y="65.53" width="1343.99" height="364.95"/>
		</defs>
		<clipPath id="SVGID_2_">
			<use xlink:href="#SVGID_1_"  style="overflow:visible;"/>
		</clipPath>
		<path class="st1" d="M425.02,149c20.41,0,37.02,5.88,47.96,16.94c6.01,6.04,9.31,13.72,11.29,22.03H365.65
			C373.33,164.46,395.02,149,425.02,149 M364.3,219.29h154.82c0,0,0.63-10.49,0.6-17.47c-0.1-21.63-7.58-41.54-21.64-56.34
			c-11.94-12.67-34.44-27.75-73.78-27.75c-46.22,0-95.3,30.68-95.3,87.51c0,25.97,8.13,47.77,23.54,63.03
			c16.75,16.58,40.9,24.87,71.84,24.57l12.8-0.13l1.04-31.56c0,0-14.3,0.35-14.69,0.35C388.36,261.5,369.51,247.08,364.3,219.29"/>
		<path class="st1" d="M674.11,261.5c-43.51,0-63.34-28.96-63.34-55.97c0-35.89,23.07-56.52,63.34-56.52c44.28,0,60,30.45,60,56.52
			C734.12,232.63,718.36,261.5,674.11,261.5 M767.2,205.53c0-51.66-38.3-87.81-93.09-87.81c-26.02,0-47.35,7.51-63.34,19.95V65.53
			h-12.84H577.7v184.23h14.03c14.64,26.48,44.69,43.08,82.38,43.08C728.9,292.84,767.2,256.95,767.2,205.53"/>
		<path class="st1" d="M933.77,118l-12.54-0.28c-52.48-1.28-73.81,21.77-82.47,38.16h-12.78v133.6h33.08v-93.64
			c0-12.52,4.65-23.96,13.2-32.15c10.78-10.36,27.45-15.46,48.14-14.69l13.38,0.52V118z"/>
		<path class="st1" d="M1321.94,219.18c0,21.05-21.75,42.32-63.29,42.32c-26.33,0-42.09-7.48-42.09-20.12
			c0-14.19,7.23-22.2,45.34-24.34l16.67-0.73c16.44-0.65,31.21-1.49,43.36-4.31V219.18z M1279.89,117.72h-0.54l-1.97,0.13l-11.83,1
			l-0.68,31.12l15.08-0.97c41.99,0,41.99,15.34,41.99,26.58c0,6.45-8,8.02-50.37,9.7l-10.93,0.47
			c-21.21,1.09-77.13,4.08-77.13,55.63c0,31.71,29.06,51.46,75.86,51.46c29.39,0,55.58-9.6,72.45-25.34l5.08-4.4
			c0,0,3.09-3.59,5.19-5.97h12.9V171.4C1354.32,151.06,1343.61,117.72,1279.89,117.72"/>
		<path class="st1" d="M1102.18,248.43l68.64-130.79h-41.52l-45.72,95.29h-0.68l-47.12-95.29h-43.61l68.38,127.09l-3.04,6.18
			c-4.89,10.85-9.44,17.76-27.93,17.76c-6.29,0-12.57-0.99-18.85-1.74v23.71c9.07,0.98,18.15,1.49,27.57,1.49
			C1079.84,292.12,1089.24,271.39,1102.18,248.43"/>
		<rect x="11.04" y="65.53" class="st1" width="33.05" height="223.95"/>
		<path class="st1" d="M272.51,289.47V181.96c0-39.06-31.35-64.23-79.91-64.23c-35.58,0-62.82,14.93-75.22,38.7h-13.44v133.03h33.02
			v-93.63c0-21.61,14.59-46.83,55.64-46.83c17.48,0,46.83,4.42,46.83,33.79v106.66H272.51z"/>
		<path class="st1" d="M1325.09,408.09c-0.43,0-0.64-0.21-0.64-0.64v-27.73c0-0.43,0.21-0.65,0.64-0.65h8.39
			c4.14,0,7.64,1.54,10.52,4.6c2.87,3.06,4.18,6.69,3.91,10.89c-0.22,3.82-1.76,7.03-4.64,9.63c-2.87,2.61-6.25,3.91-10.11,3.91
			H1325.09z M1352.33,403.9c1.78-3.22,2.66-6.75,2.66-10.56c-0.05-5.91-2.23-10.94-6.53-15.07c-4.3-4.14-9.43-6.21-15.4-6.21h-13.79
			c-0.48,0-0.91,0.18-1.29,0.52c-0.38,0.35-0.56,0.79-0.56,1.34v52.4c0,0.53,0.18,0.97,0.56,1.33c0.37,0.35,0.8,0.52,1.29,0.52h3.31
			c0.53,0,0.97-0.17,1.33-0.52c0.35-0.35,0.52-0.79,0.52-1.33v-10.56c0-0.43,0.21-0.64,0.64-0.64h8.39c1.3,0,2.61-0.11,3.95-0.33
			c0.27-0.05,0.49,0.03,0.65,0.25l7.65,12.33c0.38,0.59,0.91,0.88,1.62,0.88h3.87c0.75,0,1.31-0.32,1.66-0.96
			c0.34-0.65,0.33-1.3-0.04-1.94l-7.98-12.73c-0.22-0.38-0.14-0.67,0.24-0.89C1348.14,409.72,1350.56,407.12,1352.33,403.9
			 M1293.25,371.97c-0.48,0-0.9,0.18-1.26,0.52c-0.35,0.35-0.52,0.79-0.52,1.34v52.55c0,0.48,0.17,0.9,0.52,1.26
			c0.35,0.35,0.77,0.52,1.26,0.52h3.46c0.48,0,0.89-0.17,1.25-0.52c0.35-0.35,0.52-0.77,0.52-1.26v-52.55
			c0-0.54-0.17-0.98-0.52-1.34c-0.35-0.34-0.76-0.52-1.25-0.52H1293.25z M1259.15,410.35c0.11,0.27,0.08,0.52-0.08,0.76
			c-0.16,0.24-0.37,0.37-0.64,0.37h-19.02c-0.27,0-0.49-0.13-0.65-0.37c-0.16-0.24-0.18-0.49-0.08-0.76l9.52-25.56
			c0.1-0.37,0.34-0.56,0.72-0.56c0.37,0,0.64,0.19,0.8,0.56L1259.15,410.35z M1260.92,418.49c0.85,0,1.43,0.4,1.69,1.21l2.74,7.34
			c0.27,0.75,0.83,1.12,1.7,1.12h3.63c0.64,0,1.14-0.25,1.5-0.76c0.34-0.51,0.41-1.06,0.2-1.66l-19.43-52.47
			c-0.43-1.02-1.18-1.54-2.26-1.54h-3.55c-1.07,0-1.8,0.51-2.18,1.54l-19.5,52.47c-0.21,0.59-0.13,1.14,0.24,1.66
			c0.37,0.51,0.88,0.76,1.54,0.76h3.54c0.85,0,1.42-0.37,1.69-1.12l2.74-7.34c0.32-0.8,0.91-1.21,1.78-1.21H1260.92z
			 M1201.27,406.72c0.32,0,0.48,0.19,0.48,0.56v19.1c0,0.48,0.17,0.9,0.52,1.26c0.35,0.35,0.79,0.52,1.34,0.52h3.38
			c0.48,0,0.9-0.17,1.25-0.52c0.35-0.35,0.53-0.77,0.53-1.26v-52.55c0-0.54-0.18-0.98-0.53-1.34c-0.34-0.34-0.76-0.52-1.25-0.52
			h-3.38c-0.54,0-0.98,0.18-1.34,0.52c-0.35,0.35-0.52,0.79-0.52,1.34v25.31c0,0.38-0.16,0.57-0.48,0.57h-28.29
			c-0.38,0-0.57-0.19-0.57-0.57v-25.39c0-0.54-0.17-0.98-0.52-1.34c-0.35-0.34-0.76-0.52-1.25-0.52h-3.46
			c-0.49,0-0.9,0.18-1.26,0.52c-0.35,0.35-0.52,0.79-0.52,1.34v52.63c0,0.48,0.17,0.9,0.52,1.26c0.35,0.35,0.76,0.52,1.26,0.52h3.46
			c0.48,0,0.89-0.17,1.25-0.52c0.35-0.35,0.52-0.77,0.52-1.26v-19.1c0-0.37,0.19-0.56,0.57-0.56H1201.27z M1107.51,373.67
			c0-0.48-0.18-0.9-0.56-1.26c-0.37-0.34-0.8-0.52-1.29-0.52h-32.41c-0.48,0-0.9,0.18-1.25,0.52c-0.35,0.35-0.53,0.77-0.53,1.26
			v52.71c0,0.48,0.18,0.9,0.53,1.26c0.34,0.35,0.76,0.52,1.25,0.52h3.46c0.48,0,0.9-0.17,1.26-0.52c0.34-0.35,0.52-0.77,0.52-1.26
			V406.4c0-0.38,0.18-0.57,0.56-0.57h16.12c0.48,0,0.9-0.17,1.26-0.52c0.35-0.34,0.52-0.76,0.52-1.25v-3.46
			c0-0.48-0.17-0.9-0.52-1.26c-0.35-0.34-0.77-0.52-1.26-0.52h-16.12c-0.38,0-0.56-0.19-0.56-0.56v-18.78
			c0-0.38,0.18-0.57,0.56-0.57h26.6c0.48,0,0.91-0.17,1.29-0.52c0.38-0.34,0.56-0.76,0.56-1.25V373.67z M1014.98,389.39
			c1.66-3.33,3.91-5.97,6.73-7.9c2.82-1.93,5.93-2.89,9.31-2.89c5.1,0,9.47,2.12,13.1,6.37c3.64,4.25,5.44,9.36,5.44,15.36
			c0,5.99-1.81,11.11-5.44,15.36c-3.63,4.25-7.99,6.37-13.1,6.37c-5.11,0-9.47-2.12-13.1-6.37c-3.64-4.25-5.44-9.38-5.44-15.4
			C1012.48,396.35,1013.31,392.72,1014.98,389.39 M1043.83,375.4c-3.93-2.55-8.19-3.83-12.81-3.83c-4.63,0-8.9,1.28-12.81,3.83
			c-3.93,2.56-7.03,6.05-9.31,10.48c-2.29,4.43-3.43,9.24-3.43,14.43c0,5.18,1.14,9.98,3.43,14.38c2.28,4.41,5.38,7.9,9.31,10.48
			c3.92,2.58,8.18,3.87,12.81,3.87c4.62,0,8.89-1.29,12.81-3.87c3.93-2.58,7.03-6.08,9.31-10.48c2.29-4.4,3.43-9.2,3.43-14.38
			c0-5.19-1.14-10-3.43-14.43C1050.86,381.44,1047.76,377.96,1043.83,375.4 M950,373.91c0-0.48-0.18-0.9-0.52-1.25
			c-0.35-0.35-0.77-0.53-1.26-0.53h-31.59c-0.49,0-0.9,0.18-1.26,0.53c-0.35,0.34-0.52,0.76-0.52,1.25v52.47
			c0,0.48,0.17,0.9,0.52,1.26c0.35,0.35,0.76,0.52,1.26,0.52h31.59c0.48,0,0.9-0.17,1.26-0.52c0.34-0.35,0.52-0.77,0.52-1.26v-3.46
			c0-0.48-0.18-0.89-0.52-1.25c-0.35-0.35-0.77-0.52-1.26-0.52h-25.79c-0.38,0-0.57-0.19-0.57-0.57v-14.91
			c0-0.32,0.19-0.48,0.57-0.48h16.04c0.53,0,0.98-0.18,1.33-0.56c0.35-0.37,0.53-0.8,0.53-1.29v-3.39c0-0.48-0.18-0.9-0.53-1.29
			c-0.34-0.37-0.79-0.56-1.33-0.56h-16.04c-0.38,0-0.57-0.16-0.57-0.48v-17.9c0-0.38,0.19-0.57,0.57-0.57h25.79
			c0.48,0,0.9-0.17,1.26-0.52c0.34-0.34,0.52-0.78,0.52-1.33V373.91z M870.27,414.94c-0.16-0.42-0.44-0.74-0.84-0.96
			c-0.4-0.21-0.84-0.26-1.33-0.16l-3.31,0.96c-0.48,0.16-0.84,0.49-1.08,0.97c-0.24,0.48-0.28,0.96-0.12,1.45
			c1.56,4.36,4.07,7.67,7.54,9.96c3.46,2.28,7.53,3.31,12.21,3.1c2.95-0.16,5.69-0.9,8.21-2.22c2.53-1.32,4.6-3.25,6.22-5.8
			c1.61-2.55,2.31-5.49,2.09-8.83c-0.05-1.4-0.29-2.74-0.72-4.03c-0.43-1.3-0.92-2.39-1.5-3.3c-0.56-0.91-1.36-1.82-2.37-2.7
			c-1.02-0.89-1.93-1.6-2.7-2.14c-0.78-0.54-1.86-1.12-3.22-1.78c-1.38-0.64-2.44-1.12-3.18-1.45c-0.75-0.32-1.86-0.75-3.3-1.3
			c-4.25-1.61-7.27-3.06-9.08-4.35c-1.8-1.3-2.75-3.03-2.85-5.24c0-0.21,0.01-0.53,0.04-0.96c0.02-0.43,0.21-1.15,0.56-2.18
			c0.34-1.02,0.81-1.94,1.41-2.74c0.59-0.8,1.56-1.56,2.9-2.26c1.35-0.69,2.95-1.09,4.84-1.21c5.37-0.26,9.32,1.72,11.85,5.97
			c0.21,0.38,0.54,0.64,1,0.8c0.46,0.16,0.9,0.14,1.34-0.08l3.06-1.53c0.48-0.27,0.8-0.66,0.96-1.16c0.16-0.51,0.1-1.01-0.16-1.5
			c-3.98-6.93-10.13-10.18-18.47-9.75c-2.36,0.16-4.52,0.64-6.49,1.45c-1.96,0.8-3.55,1.82-4.79,3.02
			c-1.24,1.22-2.26,2.57-3.06,4.07c-0.8,1.51-1.36,2.97-1.66,4.4c-0.29,1.43-0.41,2.78-0.36,4.07c0.05,1.35,0.3,2.62,0.72,3.84
			c0.43,1.21,0.91,2.26,1.46,3.14c0.53,0.88,1.31,1.75,2.3,2.58c0.99,0.83,1.88,1.52,2.66,2.05c0.77,0.54,1.82,1.11,3.14,1.74
			c1.32,0.61,2.33,1.07,3.06,1.37c0.72,0.3,1.78,0.71,3.18,1.26c4.4,1.72,7.55,3.24,9.43,4.59c1.88,1.35,2.9,3.25,3.06,5.72
			c0.1,2.8-0.83,4.99-2.82,6.58c-1.99,1.58-4.38,2.45-7.17,2.61C876.64,423.32,872.42,420.64,870.27,414.94 M809.82,372.7
			c-0.37-0.48-0.86-0.72-1.45-0.72h-1.62c-0.32,0-0.61,0.08-0.88,0.24c-0.27,0.16-0.48,0.38-0.64,0.64
			c-0.17,0.27-0.25,0.57-0.25,0.89v52.63c0,0.48,0.18,0.91,0.53,1.3c0.34,0.37,0.76,0.56,1.25,0.56h3.46c0.48,0,0.9-0.19,1.26-0.56
			c0.34-0.38,0.52-0.81,0.52-1.3v-37.64c0-0.27,0.13-0.44,0.4-0.52c0.27-0.08,0.51-0.02,0.72,0.2l30.23,39.1
			c0.38,0.48,0.86,0.72,1.46,0.72h1.93c0.49,0,0.9-0.19,1.26-0.56c0.35-0.38,0.52-0.81,0.52-1.3v-52.63c0-0.48-0.17-0.9-0.52-1.26
			c-0.35-0.34-0.76-0.52-1.26-0.52h-3.38c-0.37,0-0.69,0.08-0.96,0.24c-0.27,0.16-0.48,0.38-0.64,0.64
			c-0.16,0.27-0.24,0.57-0.24,0.89v38.04c0,0.33-0.14,0.53-0.4,0.61c-0.27,0.08-0.52,0.01-0.73-0.2L809.82,372.7z M786.77,373.91
			c0-0.48-0.18-0.9-0.53-1.25c-0.35-0.35-0.76-0.53-1.25-0.53h-31.6c-0.48,0-0.89,0.18-1.25,0.53c-0.35,0.34-0.52,0.76-0.52,1.25
			v52.47c0,0.48,0.17,0.9,0.52,1.26c0.35,0.35,0.76,0.52,1.25,0.52h31.6c0.48,0,0.89-0.17,1.25-0.52c0.35-0.35,0.53-0.77,0.53-1.26
			v-3.46c0-0.48-0.18-0.89-0.53-1.25c-0.35-0.35-0.76-0.52-1.25-0.52h-25.8c-0.37,0-0.56-0.19-0.56-0.57v-14.91
			c0-0.32,0.19-0.48,0.56-0.48h16.05c0.53,0,0.97-0.18,1.33-0.56c0.35-0.37,0.52-0.8,0.52-1.29v-3.39c0-0.48-0.17-0.9-0.52-1.29
			c-0.35-0.37-0.79-0.56-1.33-0.56h-16.05c-0.37,0-0.56-0.16-0.56-0.48v-17.9c0-0.38,0.19-0.57,0.56-0.57h25.8
			c0.48,0,0.89-0.17,1.25-0.52c0.35-0.34,0.53-0.78,0.53-1.33V373.91z M707.04,414.94c-0.16-0.42-0.44-0.74-0.84-0.96
			c-0.41-0.21-0.85-0.26-1.34-0.16l-3.3,0.96c-0.48,0.16-0.84,0.49-1.08,0.97c-0.24,0.48-0.29,0.96-0.12,1.45
			c1.56,4.36,4.07,7.67,7.53,9.96c3.46,2.28,7.53,3.31,12.21,3.1c2.95-0.16,5.69-0.9,8.22-2.22c2.53-1.32,4.59-3.25,6.21-5.8
			c1.62-2.55,2.31-5.49,2.1-8.83c-0.06-1.4-0.3-2.74-0.73-4.03c-0.42-1.3-0.92-2.39-1.49-3.3c-0.56-0.91-1.36-1.82-2.38-2.7
			c-1.01-0.89-1.92-1.6-2.7-2.14c-0.77-0.54-1.85-1.12-3.22-1.78c-1.37-0.64-2.43-1.12-3.18-1.45c-0.75-0.32-1.85-0.75-3.3-1.3
			c-4.25-1.61-7.27-3.06-9.07-4.35c-1.8-1.3-2.75-3.03-2.86-5.24c0-0.21,0.01-0.53,0.04-0.96c0.03-0.43,0.21-1.15,0.56-2.18
			c0.35-1.02,0.82-1.94,1.42-2.74c0.59-0.8,1.56-1.56,2.9-2.26c1.34-0.69,2.95-1.09,4.83-1.21c5.37-0.26,9.33,1.72,11.85,5.97
			c0.22,0.38,0.55,0.64,1.01,0.8c0.45,0.16,0.89,0.14,1.33-0.08l3.06-1.53c0.48-0.27,0.8-0.66,0.96-1.16
			c0.16-0.51,0.11-1.01-0.16-1.5c-3.98-6.93-10.12-10.18-18.46-9.75c-2.36,0.16-4.53,0.64-6.49,1.45c-1.96,0.8-3.56,1.82-4.8,3.02
			c-1.24,1.22-2.26,2.57-3.06,4.07c-0.8,1.51-1.36,2.97-1.65,4.4c-0.3,1.43-0.42,2.78-0.36,4.07c0.05,1.35,0.29,2.62,0.72,3.84
			c0.43,1.21,0.91,2.26,1.45,3.14c0.54,0.88,1.31,1.75,2.3,2.58c0.99,0.83,1.88,1.52,2.66,2.05c0.78,0.54,1.83,1.11,3.14,1.74
			c1.32,0.61,2.34,1.07,3.06,1.37c0.72,0.3,1.79,0.71,3.18,1.26c4.41,1.72,7.55,3.24,9.43,4.59c1.89,1.35,2.9,3.25,3.06,5.72
			c0.11,2.8-0.83,4.99-2.82,6.58c-1.99,1.58-4.38,2.45-7.17,2.61C713.41,423.32,709.19,420.64,707.04,414.94 M606.11,372.7
			c-0.37-0.48-0.86-0.72-1.45-0.72h-1.62c-0.32,0-0.62,0.08-0.88,0.24c-0.27,0.16-0.48,0.38-0.64,0.64
			c-0.16,0.27-0.24,0.57-0.24,0.89v52.63c0,0.48,0.17,0.91,0.52,1.3c0.34,0.37,0.76,0.56,1.25,0.56h3.46c0.48,0,0.9-0.19,1.26-0.56
			c0.34-0.38,0.52-0.81,0.52-1.3v-37.64c0-0.27,0.13-0.44,0.4-0.52c0.27-0.08,0.51-0.02,0.72,0.2l30.23,39.1
			c0.38,0.48,0.86,0.72,1.46,0.72h1.94c0.48,0,0.89-0.19,1.25-0.56c0.35-0.38,0.52-0.81,0.52-1.3v-52.63c0-0.48-0.17-0.9-0.52-1.26
			c-0.35-0.34-0.76-0.52-1.25-0.52h-3.39c-0.37,0-0.69,0.08-0.96,0.24c-0.27,0.16-0.48,0.38-0.64,0.64
			c-0.16,0.27-0.24,0.57-0.24,0.89v38.04c0,0.33-0.14,0.53-0.4,0.61c-0.27,0.08-0.51,0.01-0.73-0.2L606.11,372.7z M572.98,410.35
			c0.11,0.27,0.08,0.52-0.08,0.76c-0.16,0.24-0.37,0.37-0.64,0.37h-19.03c-0.26,0-0.48-0.13-0.64-0.37
			c-0.16-0.24-0.19-0.49-0.08-0.76l9.51-25.56c0.11-0.37,0.35-0.56,0.73-0.56c0.37,0,0.64,0.19,0.8,0.56L572.98,410.35z
			 M574.76,418.49c0.85,0,1.42,0.4,1.69,1.21l2.74,7.34c0.27,0.75,0.83,1.12,1.7,1.12h3.63c0.64,0,1.14-0.25,1.49-0.76
			c0.35-0.51,0.42-1.06,0.21-1.66l-19.43-52.47c-0.43-1.02-1.19-1.54-2.26-1.54h-3.55c-1.07,0-1.8,0.51-2.18,1.54l-19.5,52.47
			c-0.22,0.59-0.14,1.14,0.24,1.66c0.37,0.51,0.88,0.76,1.53,0.76h3.56c0.85,0,1.42-0.37,1.69-1.12l2.74-7.34
			c0.32-0.8,0.91-1.21,1.78-1.21H574.76z M515.03,371.97c-0.48,0-0.9,0.18-1.26,0.52c-0.34,0.35-0.52,0.79-0.52,1.34v52.55
			c0,0.48,0.18,0.9,0.52,1.26c0.35,0.35,0.77,0.52,1.26,0.52h3.46c0.48,0,0.9-0.17,1.25-0.52c0.35-0.35,0.53-0.77,0.53-1.26v-52.55
			c0-0.54-0.18-0.98-0.53-1.34c-0.34-0.34-0.76-0.52-1.25-0.52H515.03z M460.62,426.39c0,0.48,0.17,0.9,0.52,1.26
			c0.34,0.35,0.76,0.52,1.25,0.52h30.07c0.48,0,0.91-0.17,1.3-0.52c0.37-0.35,0.56-0.77,0.56-1.26v-3.46c0-0.48-0.19-0.89-0.56-1.25
			c-0.38-0.35-0.81-0.52-1.3-0.52h-24.26c-0.37,0-0.56-0.19-0.56-0.57v-46.75c0-0.54-0.18-0.98-0.52-1.34
			c-0.35-0.34-0.76-0.52-1.26-0.52h-3.46c-0.48,0-0.9,0.18-1.25,0.52c-0.35,0.35-0.52,0.79-0.52,1.34V426.39z M432.32,410.35
			c0.11,0.27,0.08,0.52-0.08,0.76c-0.16,0.24-0.37,0.37-0.64,0.37h-19.02c-0.27,0-0.49-0.13-0.65-0.37
			c-0.16-0.24-0.19-0.49-0.08-0.76l9.51-25.56c0.11-0.37,0.35-0.56,0.73-0.56c0.37,0,0.64,0.19,0.8,0.56L432.32,410.35z
			 M434.09,418.49c0.85,0,1.42,0.4,1.69,1.21l2.74,7.34c0.27,0.75,0.83,1.12,1.7,1.12h3.63c0.64,0,1.14-0.25,1.49-0.76
			c0.35-0.51,0.42-1.06,0.21-1.66l-19.43-52.47c-0.43-1.02-1.18-1.54-2.26-1.54h-3.55c-1.07,0-1.8,0.51-2.18,1.54l-19.5,52.47
			c-0.22,0.59-0.13,1.14,0.24,1.66c0.37,0.51,0.88,0.76,1.53,0.76h3.56c0.85,0,1.42-0.37,1.69-1.12l2.74-7.34
			c0.32-0.8,0.91-1.21,1.78-1.21H434.09z M372.58,428.4c0.48,0,0.9-0.17,1.26-0.52c0.34-0.35,0.52-0.76,0.52-1.26v-45.95
			c0-0.48,0.17-0.9,0.52-1.25c0.35-0.35,0.79-0.53,1.33-0.53h12.82c0.48,0,0.89-0.17,1.25-0.52c0.35-0.34,0.52-0.76,0.52-1.25v-3.46
			c0-0.32-0.08-0.62-0.24-0.89c-0.16-0.26-0.37-0.48-0.64-0.64c-0.27-0.16-0.56-0.24-0.88-0.24h-36.28c-0.48,0-0.89,0.18-1.25,0.52
			c-0.35,0.35-0.52,0.77-0.52,1.26v3.46c0,0.48,0.17,0.9,0.52,1.25c0.35,0.35,0.76,0.52,1.25,0.52h12.82c0.48,0,0.89,0.18,1.25,0.53
			c0.35,0.34,0.52,0.76,0.52,1.25v45.95c0,0.33,0.08,0.62,0.24,0.89s0.39,0.48,0.69,0.64c0.29,0.16,0.6,0.24,0.92,0.24H372.58z
			 M326.8,371.97c-0.48,0-0.9,0.18-1.25,0.52c-0.35,0.35-0.53,0.79-0.53,1.34v52.55c0,0.48,0.18,0.9,0.53,1.26
			c0.34,0.35,0.76,0.52,1.25,0.52h3.46c0.48,0,0.9-0.17,1.26-0.52c0.34-0.35,0.52-0.77,0.52-1.26v-52.55c0-0.54-0.18-0.98-0.52-1.34
			c-0.35-0.34-0.77-0.52-1.26-0.52H326.8z M265.54,373.91c0-0.48-0.18-0.9-0.53-1.25c-0.34-0.35-0.76-0.53-1.25-0.53h-31.6
			c-0.48,0-0.89,0.18-1.25,0.53c-0.35,0.34-0.52,0.76-0.52,1.25v52.47c0,0.48,0.17,0.9,0.52,1.26c0.35,0.35,0.76,0.52,1.25,0.52
			h31.6c0.48,0,0.9-0.17,1.25-0.52c0.35-0.35,0.53-0.77,0.53-1.26v-3.46c0-0.48-0.18-0.89-0.53-1.25c-0.34-0.35-0.76-0.52-1.25-0.52
			h-25.8c-0.37,0-0.56-0.19-0.56-0.57v-14.91c0-0.32,0.19-0.48,0.56-0.48h16.05c0.53,0,0.97-0.18,1.33-0.56
			c0.35-0.37,0.52-0.8,0.52-1.29v-3.39c0-0.48-0.17-0.9-0.52-1.29c-0.35-0.37-0.79-0.56-1.33-0.56h-16.05
			c-0.37,0-0.56-0.16-0.56-0.48v-17.9c0-0.38,0.19-0.57,0.56-0.57h25.8c0.48,0,0.9-0.17,1.25-0.52c0.35-0.34,0.53-0.78,0.53-1.33
			V373.91z M203.87,406.72c0.32,0,0.48,0.19,0.48,0.56v19.1c0,0.48,0.17,0.9,0.52,1.26c0.35,0.35,0.79,0.52,1.34,0.52h3.38
			c0.48,0,0.89-0.17,1.25-0.52c0.35-0.35,0.52-0.77,0.52-1.26v-52.55c0-0.54-0.17-0.98-0.52-1.34c-0.35-0.34-0.76-0.52-1.25-0.52
			h-3.38c-0.54,0-0.98,0.18-1.34,0.52c-0.35,0.35-0.52,0.79-0.52,1.34v25.31c0,0.38-0.16,0.57-0.48,0.57h-28.3
			c-0.37,0-0.56-0.19-0.56-0.57v-25.39c0-0.54-0.17-0.98-0.52-1.34c-0.35-0.34-0.76-0.52-1.25-0.52h-3.46
			c-0.49,0-0.9,0.18-1.26,0.52c-0.35,0.35-0.52,0.79-0.52,1.34v52.63c0,0.48,0.17,0.9,0.52,1.26c0.35,0.35,0.76,0.52,1.26,0.52h3.46
			c0.48,0,0.89-0.17,1.25-0.52c0.35-0.35,0.52-0.77,0.52-1.26v-19.1c0-0.37,0.19-0.56,0.56-0.56H203.87z M134.78,428.4
			c0.48,0,0.9-0.17,1.25-0.52c0.35-0.35,0.53-0.76,0.53-1.26v-45.95c0-0.48,0.17-0.9,0.52-1.25c0.34-0.35,0.79-0.53,1.33-0.53h12.82
			c0.48,0,0.89-0.17,1.25-0.52c0.35-0.34,0.52-0.76,0.52-1.25v-3.46c0-0.32-0.08-0.62-0.24-0.89c-0.16-0.26-0.38-0.48-0.64-0.64
			c-0.27-0.16-0.56-0.24-0.88-0.24h-36.28c-0.48,0-0.89,0.18-1.25,0.52c-0.35,0.35-0.52,0.77-0.52,1.26v3.46
			c0,0.48,0.17,0.9,0.52,1.25c0.35,0.35,0.76,0.52,1.25,0.52h12.82c0.48,0,0.89,0.18,1.25,0.53c0.35,0.34,0.52,0.76,0.52,1.25v45.95
			c0,0.33,0.08,0.62,0.24,0.89c0.16,0.27,0.39,0.48,0.69,0.64c0.29,0.16,0.6,0.24,0.92,0.24H134.78z"/>
	</g>
</g>
</svg>
